# xmcd
#
# Track frame offsets:
#	150
#	19303
#	41199
#	59555
#	80225
#	110737
#	132214
#	151052
#	168953
#	188455
#	211472
#	230989
#	260972
#	278988
#	293755
#
# Disc length: 4157 seconds
#
# Revision: 0
# Processed by: cddbd v1.5.1PL0 Copyright (c) Steve Scherf et al.
# Submitted via: dBpowerAMP V4.0
#
DISCID=e9103b0f
DTITLE=Various Artist - Various
DYEAR=1900
DGENRE=
TTITLE0=3 Doors Down - When I'm Gone by 3 Doors Down
TTITLE1=Don't Let Go
TTITLE2=Same Kind Of Crazy
TTITLE3=Red Hot Chili Peppers - Roller Coaster of Love
TTITLE4=Holiday
TTITLE5=Forever And For Always
TTITLE6=Just Another Day
TTITLE7=I'll Go On Loving You
TTITLE8=Brad Pasiley Feat Alison Krouse - Whiskey Lullaby
TTITLE9=Call Me the Breeze
TTITLE10=In My Dreams.mp3
TTITLE11=Screaming In The Night
TTITLE12=Krokus - Ballroom Blitz
TTITLE13=Boot Scootin' Boogie
TTITLE14=black betty
EXTD=
EXTT0=
EXTT1=
EXTT2=
EXTT3=
EXTT4=
EXTT5=
EXTT6=
EXTT7=
EXTT8=
EXTT9=
EXTT10=
EXTT11=
EXTT12=
EXTT13=
EXTT14=
PLAYORDER=
